<?xml version="1.0" encoding="utf-8"?>
<!-- Generator: Adobe Illustrator 16.0.0, SVG Export Plug-In . SVG Version: 6.00 Build 0)  -->
<!DOCTYPE svg PUBLIC "-//W3C//DTD SVG 1.1//EN" "http://www.w3.org/Graphics/SVG/1.1/DTD/svg11.dtd">
<svg version="1.1" id="图形" xmlns="http://www.w3.org/2000/svg" xmlns:xlink="http://www.w3.org/1999/xlink" x="0px" y="0px"
	 width="1000.637px" height="1000.678px" viewBox="15.167 -16.333 1000.637 1000.678"
	 enable-background="new 15.167 -16.333 1000.637 1000.678" xml:space="preserve">
<path fill="#313144" d="M973.23,108.734H57.167c-23.196,0-42,18.804-42,42v728.551c0,23.196,18.804,42,42,42H973.23
	c23.196,0,42-18.804,42-42V150.734C1015.23,127.538,996.426,108.734,973.23,108.734z M890.222,754.277c0,23.196-18.804,42-42,42
	H182.175c-23.196,0-42-18.804-42-42V546.261H390.19v20.504c0,23.196,18.804,42,42,42h166.016c23.196,0,42-18.804,42-42v-20.504
	h250.016v-62.504H640.206v-20.504c0-23.196-18.804-42-42-42H432.19c-23.196,0-42,18.804-42,42v20.504H140.175V275.801
	c0-23.196,18.804-42,42-42h666.047c23.196,0,42,18.804,42,42V754.277z"/>
</svg>
