<?xml version="1.0" encoding="utf-8"?>
<!-- Generator: Adobe Illustrator 16.0.0, SVG Export Plug-In . SVG Version: 6.00 Build 0)  -->
<!DOCTYPE svg PUBLIC "-//W3C//DTD SVG 1.1//EN" "http://www.w3.org/Graphics/SVG/1.1/DTD/svg11.dtd">
<svg version="1.1" id="图形" xmlns="http://www.w3.org/2000/svg" xmlns:xlink="http://www.w3.org/1999/xlink" x="0px" y="0px"
	 width="1000.637px" height="1000.678px" viewBox="15.167 -16.333 1000.637 1000.678"
	 enable-background="new 15.167 -16.333 1000.637 1000.678" xml:space="preserve">
<g>
	<path fill="#313144" d="M973.23-16.333H57.167c-23.196,0-42,18.804-42,42v916.122c0,23.196,18.804,42,42,42H973.23
		c23.196,0,42-18.804,42-42V25.667C1015.23,2.471,996.426-16.333,973.23-16.333z M890.222,816.781c0,23.196-18.804,42-42,42H182.175
		c-23.196,0-42-18.804-42-42V150.734c0-23.196,18.804-42,42-42h666.047c23.196,0,42,18.804,42,42V816.781z"/>
	<polygon fill="#313144" points="390.19,233.741 327.686,233.741 327.686,296.245 265.182,296.245 265.182,358.749 327.686,358.749 
		327.686,421.253 390.19,421.253 390.19,358.749 452.694,358.749 452.694,296.245 390.19,296.245 	"/>
	<rect x="577.702" y="296.245" fill="#313144" width="187.512" height="62.504"/>
	<rect x="265.182" y="546.261" fill="#313144" width="62.504" height="62.504"/>
	<rect x="327.686" y="608.765" fill="#313144" width="62.504" height="62.504"/>
	<rect x="390.19" y="671.269" fill="#313144" width="62.504" height="62.504"/>
	<rect x="390.19" y="546.261" fill="#313144" width="62.504" height="62.504"/>
	<rect x="265.182" y="671.269" fill="#313144" width="62.504" height="62.504"/>
	<rect x="577.702" y="546.261" fill="#313144" width="187.512" height="62.504"/>
	<rect x="577.702" y="671.269" fill="#313144" width="187.512" height="62.504"/>
</g>
</svg>
