<?xml version="1.0" encoding="utf-8"?>
<!-- Generator: Adobe Illustrator 16.0.0, SVG Export Plug-In . SVG Version: 6.00 Build 0)  -->
<!DOCTYPE svg PUBLIC "-//W3C//DTD SVG 1.1//EN" "http://www.w3.org/Graphics/SVG/1.1/DTD/svg11.dtd">
<svg version="1.1" id="图形" xmlns="http://www.w3.org/2000/svg" xmlns:xlink="http://www.w3.org/1999/xlink" x="0px" y="0px"
	 width="1000.637px" height="1000.678px" viewBox="15.167 -16.333 1000.637 1000.678"
	 enable-background="new 15.167 -16.333 1000.637 1000.678" xml:space="preserve">
<g>
	<path fill="#313144" d="M515.199-16.274c-276.16,0-500.031,223.872-500.031,500.031s223.872,500.031,500.031,500.031
		c276.16,0,500.031-223.871,500.031-500.031S791.359-16.274,515.199-16.274z M515.199,858.781
		c-207.12,0-375.023-167.903-375.023-375.023s167.904-375.023,375.023-375.023c207.12,0,375.023,167.904,375.023,375.023
		S722.319,858.781,515.199,858.781z"/>
	<polygon fill="#313144" points="577.703,233.742 452.694,233.742 452.694,421.254 452.694,546.261 577.703,546.261 702.71,546.261 
		702.71,421.254 577.703,421.254 	"/>
</g>
</svg>
