<?xml version="1.0" encoding="utf-8"?>
<!-- Generator: Adobe Illustrator 16.0.0, SVG Export Plug-In . SVG Version: 6.00 Build 0)  -->
<!DOCTYPE svg PUBLIC "-//W3C//DTD SVG 1.1//EN" "http://www.w3.org/Graphics/SVG/1.1/DTD/svg11.dtd">
<svg version="1.1" id="图形" xmlns="http://www.w3.org/2000/svg" xmlns:xlink="http://www.w3.org/1999/xlink" x="0px" y="0px"
	 width="1000.637px" height="1000.678px" viewBox="15.167 -16.333 1000.637 1000.678"
	 enable-background="new 15.167 -16.333 1000.637 1000.678" xml:space="preserve">
<g>
	<path fill-rule="evenodd" clip-rule="evenodd" fill="#313144" d="M827.717,784.277c0,6.627-5.372,12-12,12H214.678
		c-6.627,0-12-5.373-12-12V183.238c0-6.627,5.373-12,12-12h238.016v-62.504h-300.52c-6.627,0-12,5.373-12,12v726.047
		c0,6.627,5.373,12,12,12h726.047c6.628,0,12-5.373,12-12v-300.52h-62.504V784.277z"/>
	<path fill-rule="evenodd" clip-rule="evenodd" fill="#313144" d="M878.221,108.734h-300.52c-6.627,0-12,5.373-12,12
		l136.787,131.535L359.858,594.9l44.197,44.197l343.496-343.496l130.67,125.652c6.628,0,12-5.373,12-12v-288.52
		C890.221,114.106,884.849,108.734,878.221,108.734z"/>
</g>
</svg>
