<?xml version="1.0" encoding="utf-8"?>
<!-- Generator: Adobe Illustrator 16.0.0, SVG Export Plug-In . SVG Version: 6.00 Build 0)  -->
<!DOCTYPE svg PUBLIC "-//W3C//DTD SVG 1.1//EN" "http://www.w3.org/Graphics/SVG/1.1/DTD/svg11.dtd">
<svg version="1.1" id="图形" xmlns="http://www.w3.org/2000/svg" xmlns:xlink="http://www.w3.org/1999/xlink" x="0px" y="0px"
	 width="1000.637px" height="1000.678px" viewBox="15.167 -16.333 1000.637 1000.678"
	 enable-background="new 15.167 -16.333 1000.637 1000.678" xml:space="preserve">
<g>
	<rect x="77.67" y="46.23" fill="#313144" width="125.008" height="125.008"/>
	<rect x="77.67" y="233.741" fill="#313144" width="125.008" height="125.008"/>
	<rect x="77.67" y="421.253" fill="#313144" width="125.008" height="125.008"/>
	<rect x="77.67" y="608.765" fill="#313144" width="125.008" height="125.008"/>
	<rect x="77.67" y="796.277" fill="#313144" width="125.008" height="125.008"/>
	<rect x="265.182" y="46.23" fill="#313144" width="625.039" height="125.008"/>
	<rect x="265.182" y="233.741" fill="#313144" width="625.039" height="125.008"/>
	<rect x="265.182" y="421.253" fill="#313144" width="625.039" height="125.008"/>
	<rect x="265.182" y="608.765" fill="#313144" width="250.016" height="125.008"/>
	<rect x="265.182" y="796.277" fill="#313144" width="250.016" height="125.008"/>
	<polygon fill="#313144" points="577.702,671.269 577.702,733.773 577.702,796.277 577.702,858.781 577.702,921.284 
		640.206,921.284 640.206,858.781 702.709,858.781 702.709,796.277 765.213,796.277 765.213,733.773 827.717,733.773 
		827.717,671.269 890.221,671.269 890.221,608.765 577.702,608.765 	"/>
</g>
</svg>
