<?xml version="1.0" encoding="utf-8"?>
<!-- Generator: Adobe Illustrator 16.0.0, SVG Export Plug-In . SVG Version: 6.00 Build 0)  -->
<!DOCTYPE svg PUBLIC "-//W3C//DTD SVG 1.1//EN" "http://www.w3.org/Graphics/SVG/1.1/DTD/svg11.dtd">
<svg version="1.1" id="图形" xmlns="http://www.w3.org/2000/svg" xmlns:xlink="http://www.w3.org/1999/xlink" x="0px" y="0px"
	 width="1000.063px" height="1000.062px" viewBox="-5.668 -37.109 1000.063 1000.062"
	 enable-background="new -5.668 -37.109 1000.063 1000.062" xml:space="preserve">
<path fill-rule="evenodd" clip-rule="evenodd" fill="#313144" d="M869.056,212.906H78.001c-23.196,0-42,18.804-42,42v416.36
	c0,23.195,18.804,42,42,42h791.055c23.195,0,42-18.805,42-42v-416.36C911.056,231.711,892.251,212.906,869.056,212.906z
	 M327.687,546.259h-41.669v-41.668h-41.669v-41.67h-41.669v-41.67h-41.669v125.008H119.34V337.914h41.669v41.669h41.669v41.667
	h41.669v41.67h41.669V337.914h41.669V546.259z M577.702,379.583H411.025v41.667h166.677v41.67H411.025v41.67h166.677v41.668H411.025
	v-41.668h-41.669V379.583h41.669v-41.669h166.677V379.583z M827.718,504.591h-41.67v41.668h-41.669v-41.668H702.71v41.668h-41.67
	v-41.668h-41.669V337.914h41.669v166.677h41.67V337.914h41.669v166.677h41.669V337.914h41.67V504.591z"/>
</svg>
