<?xml version="1.0" encoding="utf-8"?>
<!-- Generator: Adobe Illustrator 16.0.0, SVG Export Plug-In . SVG Version: 6.00 Build 0)  -->
<!DOCTYPE svg PUBLIC "-//W3C//DTD SVG 1.1//EN" "http://www.w3.org/Graphics/SVG/1.1/DTD/svg11.dtd">
<svg version="1.1" id="图形" xmlns="http://www.w3.org/2000/svg" xmlns:xlink="http://www.w3.org/1999/xlink" x="0px" y="0px"
	 width="1000.637px" height="1000.678px" viewBox="15.167 -16.333 1000.637 1000.678"
	 enable-background="new 15.167 -16.333 1000.637 1000.678" xml:space="preserve">
<g>
	<path fill="#313144" d="M973.23-16.333H57.167c-23.196,0-42,18.804-42,42v916.122c0,23.196,18.804,42,42,42H973.23
		c23.196,0,42-18.804,42-42V25.667C1015.23,2.471,996.426-16.333,973.23-16.333z M890.222,816.781c0,23.196-18.804,42-42,42H182.175
		c-23.196,0-42-18.804-42-42V150.734c0-23.196,18.804-42,42-42h666.047c23.196,0,42,18.804,42,42V816.781z"/>
	<path fill="#313144" d="M765.213,452.505c0-155.34-125.928-281.268-281.268-281.268c-155.339,0-281.268,125.928-281.268,281.268
		s125.929,281.268,281.268,281.268c61.72,0,118.784-19.895,165.164-53.6l116.104,116.104l62.504-62.504L711.614,617.669
		C745.318,571.289,765.213,514.225,765.213,452.505z M483.945,671.269c-120.819,0-218.763-97.944-218.763-218.764
		c0-120.82,97.943-218.764,218.763-218.764s218.765,97.943,218.765,218.764C702.709,573.324,604.764,671.269,483.945,671.269z"/>
</g>
</svg>
