<?xml version="1.0" encoding="utf-8"?>
<!-- Generator: Adobe Illustrator 16.0.0, SVG Export Plug-In . SVG Version: 6.00 Build 0)  -->
<!DOCTYPE svg PUBLIC "-//W3C//DTD SVG 1.1//EN" "http://www.w3.org/Graphics/SVG/1.1/DTD/svg11.dtd">
<svg version="1.1" id="图形" xmlns="http://www.w3.org/2000/svg" xmlns:xlink="http://www.w3.org/1999/xlink" x="0px" y="0px"
	 width="1000.637px" height="1000.678px" viewBox="15.167 -16.333 1000.637 1000.678"
	 enable-background="new 15.167 -16.333 1000.637 1000.678" xml:space="preserve">
<g>
	<path fill="#313144" d="M973.23,108.734H57.167c-23.196,0-42,18.804-42,42v728.551c0,23.196,18.804,42,42,42H973.23
		c23.196,0,42-18.804,42-42V150.734C1015.23,127.538,996.426,108.734,973.23,108.734z M890.222,754.277c0,23.196-18.804,42-42,42
		H182.175c-23.196,0-42-18.804-42-42V275.801c0-23.196,18.804-42,42-42h666.047c23.196,0,42,18.804,42,42V754.277z"/>
	<polygon fill="#313144" points="577.702,483.757 515.198,483.757 515.198,421.253 452.694,421.253 452.694,358.749 390.19,358.749 
		390.19,421.253 202.678,421.253 202.678,546.261 390.19,546.261 390.19,483.757 452.694,483.757 452.694,546.261 515.198,546.261 
		515.198,608.765 577.702,608.765 577.702,546.261 702.709,546.261 702.709,421.253 577.702,421.253 	"/>
	<rect x="765.213" y="421.253" fill="#313144" width="62.504" height="125.008"/>
</g>
</svg>
