<?xml version="1.0" encoding="utf-8"?>
<!-- Generator: Adobe Illustrator 16.0.0, SVG Export Plug-In . SVG Version: 6.00 Build 0)  -->
<!DOCTYPE svg PUBLIC "-//W3C//DTD SVG 1.1//EN" "http://www.w3.org/Graphics/SVG/1.1/DTD/svg11.dtd">
<svg version="1.1" id="图形" xmlns="http://www.w3.org/2000/svg" xmlns:xlink="http://www.w3.org/1999/xlink" x="0px" y="0px"
	 width="1000.637px" height="1000.678px" viewBox="15.167 -16.333 1000.637 1000.678"
	 enable-background="new 15.167 -16.333 1000.637 1000.678" xml:space="preserve">
<g>
	<path fill="#313144" d="M973.23-16.333H57.167c-23.196,0-42,18.804-42,42v916.122c0,23.196,18.804,42,42,42H973.23
		c23.196,0,42-18.804,42-42V25.667C1015.23,2.471,996.426-16.333,973.23-16.333z M890.222,816.781c0,23.196-18.804,42-42,42H182.175
		c-23.196,0-42-18.804-42-42V150.734c0-23.196,18.804-42,42-42h666.047c23.196,0,42,18.804,42,42V816.781z"/>
	<path fill="#313144" d="M640.206,608.765l-62.504-312.52H452.694c0,0-61.595,301.605-62.504,312.52l-62.504-312.52h-62.504
		l62.504,375.023h125.008l62.504-312.52c0.726,15.281,62.504,312.52,62.504,312.52h125.008l62.504-375.023h-62.504
		C702.709,296.245,641.115,596.943,640.206,608.765z"/>
</g>
</svg>
